<?xml version="1.0" encoding="UTF-8"?>
<svg width="543px" height="142px" viewBox="0 0 543 142" version="1.1" xmlns="http://www.w3.org/2000/svg" xmlns:xlink="http://www.w3.org/1999/xlink">
    <!-- Generator: Sketch 47.1 (45422) - http://www.bohemiancoding.com/sketch -->
    <title>white</title>
    <desc>Created with Sketch.</desc>
    <defs></defs>
    <g id="Page-1" stroke="none" stroke-width="1" fill="none" fill-rule="evenodd">
        <g id="white">
            <path d="M180.014462,70 C180.016793,69.9598082 180.019404,69.9196913 180.022292,69.8796513 C178.285765,69.4434096 177,67.8718581 177,66 C177,63.790861 178.790861,62 181,62 L188,62 C188.068197,62 188.135995,62.0017066 188.203354,62.0050796 C188.30182,62.0017024 188.400711,62 188.5,62 C193.19442,62 197,65.8055796 197,70.5 C197,70.8008077 196.984374,71.0979659 196.953891,71.3907072 C196.984253,71.5893724 197,71.7928472 197,72 L197,101 C197,103.209139 195.209139,105 193,105 C190.790861,105 189,103.209139 189,101 L189,72.7000002 C189,71.2088312 187.746397,70 186.2,70 L180.014462,70 L180.014462,70 Z" id="Combined-Shape-Copy-15" fill="#FFFFFF"></path>
            <path d="M504,80 L503.958926,80 C503.450775,73.8404695 498.290664,69 492,69 C485.709336,69 480.549225,73.8404695 480.041074,80 L480,80 L480,101 C480,103.209139 478.209139,105 476,105 C473.790861,105 472,103.209139 472,101 L472,72.7000002 C472,71.2088312 470.746397,70 469.2,70 L463.014462,70 C463.016793,69.9598082 463.019404,69.9196913 463.022292,69.8796513 C461.285765,69.4434096 460,67.8718581 460,66 C460,63.790861 461.790861,62 464,62 L471,62 C471.068197,62 471.135995,62.0017066 471.203354,62.0050796 C471.30182,62.0017024 471.400711,62 471.5,62 C474.288385,62 476.763178,63.3426487 478.313141,65.4167086 C481.890903,62.0575488 486.705168,60 492,60 C502.71037,60 511.454404,68.4188885 511.975435,79 L512,79 L512,100.666667 C512,103.059901 510.209139,105 508,105 C505.790861,105 504,103.059901 504,100.666667 L504,80 Z" id="Combined-Shape-Copy-16" fill="#FFFFFF"></path>
            <path d="M246,80 L245.958926,80 C245.450775,73.8404695 240.290664,69 234,69 C227.709336,69 222.549225,73.8404695 222.041074,80 L222,80 L222,101 C222,103.209139 220.209139,105 218,105 C215.790861,105 214,103.209139 214,101 L214,72.7000002 C214,71.2088312 212.746397,70 211.2,70 L205.014462,70 C205.016793,69.9598082 205.019404,69.9196913 205.022292,69.8796513 C203.285765,69.4434096 202,67.8718581 202,66 C202,63.790861 203.790861,62 206,62 L213,62 C213.068197,62 213.135995,62.0017066 213.203354,62.0050796 C213.30182,62.0017024 213.400711,62 213.5,62 C216.288385,62 218.763178,63.3426487 220.313141,65.4167086 C223.890903,62.0575488 228.705168,60 234,60 C244.71037,60 253.454404,68.4188885 253.975435,79 L254,79 L254,100.666667 C254,103.059901 252.209139,105 250,105 C247.790861,105 246,103.059901 246,100.666667 L246,80 Z" id="Combined-Shape-Copy-17" fill="#FFFFFF"></path>
            <path d="M268,56 L268,64 L279.985155,64 C282.194294,64 283.985155,66.0147186 283.985155,68.5 C283.985155,70.9852814 282.194294,73 279.985155,73 L268,73 L268,100.985155 C268,103.194294 265.985281,104.985155 263.5,104.985155 C261.014719,104.985155 259,103.194294 259,100.985155 L259,55 L259.027308,55 C259.54619,45.524011 267.394432,38 277,38 C285.034951,38 291.840277,43.2646532 294.154651,50.5326337 L294,50.3077157 C294.069823,50.5834361 294.154651,51.3230127 294.154651,51.6204382 C294.154651,53.5534348 292.708152,55.2556287 290.77647,55.2191401 C289.505639,55.1951346 287.975292,54.9304746 287.097893,53.1492708 C285.626751,49.4584704 282.215457,47 278,47 C272.814652,47 268.5511,50.9466773 268.049375,56 L268,56 L268,56 Z" id="Combined-Shape-Copy-18" fill="#FFFFFF"></path>
            <g id="Group" transform="translate(2.000000, 2.000000)" stroke="#FFFFFF" stroke-width="4">
                <circle id="Oval-Copy-12" cx="67.5" cy="15.5" r="15.5"></circle>
                <circle id="Oval-Copy-13" cx="136" cy="54" r="12"></circle>
                <circle id="Oval-Copy-14" cx="69" cy="126" r="12"></circle>
                <circle id="Oval-Copy-15" cx="104.5" cy="100.5" r="6.5"></circle>
                <circle id="Oval-Copy-16" cx="13" cy="44" r="13"></circle>
                <circle id="Oval-Copy-17" cx="51.5" cy="75.5" r="19.5"></circle>
                <path d="M23,52 L36.1256169,62.4374039" id="Path-2-Copy-2"></path>
                <path d="M63.5,30.5 L57,56.4259705" id="Path-3-Copy-2"></path>
                <path d="M71,70.6025065 L124.911894,57" id="Path-4-Copy-2"></path>
                <path d="M70,84 L98.9033349,97.856352" id="Path-5-Copy-2"></path>
                <path d="M58,94 L65.0502508,113.785087" id="Path-6-Copy-2"></path>
            </g>
            <circle id="Oval-3-Copy-2" fill="#FFFFFF" cx="191.5" cy="48.5" r="3.5"></circle>
            <path d="M304,38 C306.209139,38 308,39.790861 308,42 L308,101 C308,103.209139 306.209139,105 304,105 C301.790861,105 300,103.209139 300,101 L300,42 C300,39.790861 301.790861,38 304,38 Z" id="Rectangle-4-Copy-2" fill="#FFFFFF"></path>
            <path d="M335.5,105 C323.073593,105 313,94.9264069 313,82.5 C313,70.0735931 323.073593,60 335.5,60 C347.926407,60 358,70.0735931 358,82.5 C358,94.9264069 347.926407,105 335.5,105 Z M335.5,96 C342.955844,96 349,89.9558441 349,82.5 C349,75.0441559 342.955844,69 335.5,69 C328.044156,69 322,75.0441559 322,82.5 C322,89.9558441 328.044156,96 335.5,96 Z" id="Combined-Shape-Copy-19" fill="#FFFFFF"></path>
            <path d="M385.5,105 C373.073593,105 363,94.9264069 363,82.5 C363,70.0735931 373.073593,60 385.5,60 C397.926407,60 408,70.0735931 408,82.5 C408,94.9264069 397.926407,105 385.5,105 Z M385.5,96 C392.955844,96 399,89.9558441 399,82.5 C399,75.0441559 392.955844,69 385.5,69 C378.044156,69 372,75.0441559 372,82.5 C372,89.9558441 378.044156,96 385.5,96 Z" id="Combined-Shape-Copy-20" fill="#FFFFFF"></path>
            <path d="M453.657338,69.4022602 C453.940639,69.8097473 454.191622,70.2218428 454.383233,70.6414367 C454.39913,70.6706032 454.414979,70.6998277 454.43078,70.7291103 L454.424202,70.733369 C455.100615,72.2900327 454.937157,73.9522446 452.563343,75.8664155 C448.508991,79.135722 450.659468,77.3763266 450.024183,77.8726659 L428.972645,94.3199296 C430.907193,95.3905326 433.132422,96 435.5,96 C438.906513,96 442.018337,94.7382822 444.393643,92.6566737 C445.845251,91.5222423 446.757857,91.0405057 448.565448,90.7412175 C450.949355,90.3465069 453.470171,91.7371524 453.502755,94.5102881 C453.513381,95.4145848 453.293627,96.0225998 453.06804,96.5588393 C448.944646,101.704789 442.607142,105 435.5,105 C423.073593,105 413,94.9264069 413,82.5 C413,70.0735931 423.073593,60 435.5,60 C443.510637,60 449.770716,63.2229137 453.657338,69.4022602 Z M444.25771,72.2257822 C441.900201,70.2143152 438.84191,69 435.5,69 C428.044156,69 422,75.0441559 422,82.5 C422,84.6607158 422.507618,86.702871 423.410106,88.513716 L444.25771,72.2257822 Z" id="Combined-Shape-Copy-21" fill="#FFFFFF"></path>
            <path d="M530.5,79.0360608 L530.5,78.9753124 C530.335547,78.9916403 530.16875,79 530,79 C527.238576,79 525,76.7614237 525,74 C525,71.2385763 527.238576,69 530,69 C531.776994,69 533.337477,69.926996 534.224247,71.3237866 C534.372169,71.5499081 534.593624,71.8601376 534.888613,72.2544752 C535.877182,73.2645924 536.723566,73.6546644 537.98778,73.8088176 C538.073986,73.8193292 538.484257,73.8088176 538.565477,73.8088176 C540.498473,73.8088176 541.784449,72.4242282 542,70.6148651 C542.009602,70.534262 541.997234,70.3382074 541.99179,70.2583694 C541.997235,70.1729475 542,70.0867966 542,70 C541.762541,64.2291084 535.784082,61 530,61 C522.820298,61 517,66.8202983 517,74 C517,80.8315124 522.26946,86.4322763 528.965532,86.9594426 L528.965532,87.0246876 C529.136539,87.0083597 529.309984,87 529.485459,87 C532.356932,87 534.684722,89.2385763 534.684722,92 C534.684722,94.7614237 532.356932,97 529.485459,97 C527.637646,97 526.014974,96.073004 525.092864,94.6762134 C524.939047,94.4500919 524.708766,94.1398624 524.402021,93.7455248 C523.374055,92.7354076 522.49394,92.3453356 521.179344,92.1911824 C521.089702,92.1806708 520.663081,92.1911824 520.578625,92.1911824 C518.568593,92.1911824 517.231369,93.5757718 517.007227,95.3851349 C516.997242,95.465738 517.010104,95.6617926 517.015764,95.7416306 C517.010102,95.8270525 517.007227,95.9132034 517.007227,96 C517.25415,101.770892 523.470866,105 529.485459,105 C536.95129,105 543.003543,99.1797017 543.003543,92 C543.003543,85.1485006 537.491971,79.5349618 530.5,79.0360608 L530.5,79.0360608 Z" id="Combined-Shape-Copy-22" fill="#FFFFFF"></path>
        </g>
    </g>
</svg>